<svg width="97" height="34" viewBox="0 0 97 34" fill="none" xmlns="http://www.w3.org/2000/svg">
<g clip-path="url(#clip0_70_48)">
<rect width="97" height="34"/>
<path d="M33 23.8234C32.9712 24.0662 32.8273 24.9028 32.4243 25.9282C32.3668 26.1171 32.1077 26.7378 31.6184 27.5204C31.3593 27.9252 30.9564 28.5998 30.2368 29.3554C30.0065 29.5983 29.5747 30.0301 28.9127 30.4888C28.2795 30.9476 27.2721 31.5682 25.8329 32C26.4661 31.4603 26.8115 30.9745 27.013 30.6237C27.1281 30.4618 27.2433 30.2459 27.3008 30.138C27.416 29.8951 27.675 29.4634 27.8765 29.0046C28.1931 28.33 28.3083 27.7633 28.3946 27.4934C28.5673 26.7918 28.9127 25.3076 28.3946 23.5805C28.2507 23.1217 28.078 22.5011 27.5599 21.8534C26.9554 21.0708 26.2646 20.693 25.8904 20.5041C24.9981 20.0184 24.2498 19.8835 23.3575 19.7216C22.5803 19.5866 21.9759 19.5327 20.9684 19.4787C20.4215 19.4517 19.8747 19.4517 18.8097 19.4247C18.493 19.4247 17.572 19.4247 16.8524 19.3977C16.7372 19.3977 16.6221 19.3977 16.4782 19.3977C16.3343 19.3977 16.1616 19.3977 15.9889 19.3977C13.3695 19.3707 10.7502 19.3168 8.13092 19.2898C8.76416 18.5612 9.31105 17.9675 9.7428 17.5357C10.6927 16.5642 11.4698 15.9436 12.247 15.4039C12.65 15.134 12.9954 14.9181 13.4271 14.7832C14.0316 14.5403 14.5785 14.4864 14.8951 14.4594C15.2405 14.4054 15.5571 14.4054 15.8737 14.4054C16.3055 14.4054 16.6509 14.4054 16.9099 14.4054C16.9099 14.5133 16.8524 14.6483 16.8236 14.8102C16.5933 15.6737 16.2767 16.2944 16.1903 16.4293C15.9601 16.8341 15.6435 17.4008 15.0966 17.9945C15.5283 17.8326 16.0176 17.6167 16.507 17.3198C17.4856 16.7262 18.1188 16.0245 18.5218 15.5118C18.5218 15.5118 19.2126 14.5403 19.558 13.191C19.558 13.191 19.558 13.1641 19.558 13.1371C19.6444 12.7593 19.6444 12.4894 19.6444 12.3815C19.6444 12.1926 19.6156 12.0576 19.5868 11.9227C19.5868 11.8418 19.558 11.7608 19.5292 11.6799C19.4717 11.5449 19.4141 11.329 19.299 11.1132C19.299 11.1132 19.1551 10.8703 18.9824 10.6274C18.2052 9.60196 17.0539 9.00828 17.0539 9.00828C15.8449 8.38761 14.5785 8.30665 13.312 8.22569C13.2832 8.22569 13.1968 8.22569 13.0529 8.22569C12.8802 8.22569 12.7075 8.22569 12.5348 8.22569C9.02321 8.17172 5.51161 8.09077 2 8.00981C2.46054 7.25421 3.69824 5.33824 5.31012 4.2858C5.88579 3.908 6.49025 3.63814 6.51903 3.63814C6.63417 3.58417 6.7493 3.5302 6.89322 3.47623C6.89322 3.47623 7.61281 3.23336 8.53389 3.12542C9.28227 3.04446 11.6713 2.9635 14.9239 3.01748L17.2266 3.07145C17.428 3.07145 17.6583 3.07145 17.8886 3.07145C18.0901 3.07145 18.2628 3.07145 18.4355 3.12542C18.5506 3.12542 18.6945 3.12542 18.8672 3.17939C18.8672 3.17939 19.2126 3.23336 19.6156 3.36829C21.0548 3.82704 22.0622 4.60963 22.0622 4.60963C23.1272 5.44618 23.6741 6.36369 23.8756 6.74149C24.0771 7.11929 24.6815 8.33364 24.5952 10.0067C24.5952 10.0067 24.5088 11.437 23.7029 12.9212C23.3575 13.5688 22.9833 14.0276 22.7818 14.2705C22.7242 14.3244 22.6955 14.3784 22.6379 14.4324C22.6379 14.4324 22.6091 14.4864 22.5803 14.4864C22.8106 14.4864 23.0696 14.4864 23.3287 14.4864C24.48 14.4864 25.0557 14.5133 25.1996 14.5403C25.8617 14.5943 27.1857 14.7292 28.6537 15.4578C28.9991 15.6467 29.4596 15.8896 29.9201 16.2404C30.2368 16.4833 30.5534 16.7531 30.8412 17.104C31.3018 17.6437 31.5896 18.1564 31.8199 18.5612C31.9926 18.885 32.338 19.4787 32.597 20.2883C32.7122 20.6121 33.1439 22.0963 32.8849 23.9853L33 23.8234Z" fill="#F15B22"/>
<path d="M25.2776 30.6275C24.7932 31.1657 24.3088 31.4348 24.1473 31.5156C23.7706 31.7039 23.4477 31.7847 23.2055 31.8385C22.8556 31.9192 22.5596 31.9461 22.3443 31.973C21.8868 32 21.5908 31.973 21.241 31.973C20.5951 31.973 20.4068 31.973 19.6533 32C18.7383 32 18.0386 32 16.7739 32C15.6167 32 14.7556 32 14.325 32C12.6296 32 10.9074 31.973 9.21201 31.9461C7.54356 31.9461 5.12162 31.9192 2 31.8923C2.64585 31.0043 3.85682 29.5511 5.68674 28.5554C6.54787 28.0979 7.35519 27.8288 7.54356 27.775C7.54356 27.775 8.6738 27.3983 9.99241 27.2637C11.6609 27.1022 18.1732 26.9677 26.9998 27.0484C26.5693 28.2325 26.1656 29.0936 25.8965 29.6318C25.735 29.9278 25.5736 30.2508 25.2776 30.5737V30.6275Z" fill="#F15B22"/>
<path d="M45.2791 30.1522C45.2791 30.9565 44.6117 31.6304 43.8151 31.6304H37.5071C37.1841 31.6304 36.8827 31.5217 36.6459 31.3478C36.2584 31.0869 36 30.6304 36 30.1304V17.5C36 16.6956 36.6459 16.0217 37.4425 16.0217C38.239 16.0217 37.4855 16.0217 37.5071 16.0217C37.5286 16.0217 37.5501 16.0217 37.5716 16.0217H43.7506C44.5471 16.0217 45.2146 16.6956 45.2146 17.5C45.2146 18.3043 44.5471 18.9783 43.7506 18.9783H38.8849C38.8849 19.4783 38.8849 19.8696 38.8849 20.1304C38.8849 20.5869 38.8849 20.7609 38.8419 20.8913C38.8419 20.9348 38.8203 20.9565 38.8203 20.9783C38.7558 21.1522 38.6266 21.3478 38.3252 21.5435C38.0453 21.7391 37.8085 21.8478 37.5716 21.9348C37.3348 22.0435 37.2918 22.0217 36.8612 22.1739C36.3014 22.3696 36.2799 22.413 36.2799 22.413C36.2799 22.4348 36.3875 22.4348 36.9903 22.413C37.2702 22.413 37.4209 22.3913 37.7223 22.3696C38.0883 22.3478 38.2821 22.3478 38.9065 22.3478C40.6503 22.3478 40.6073 22.3478 40.7365 22.3478C41.533 22.3478 42.2004 23.0217 42.2004 23.8261C42.2004 24.6304 41.533 25.3043 40.7365 25.3043H38.9065C38.928 25.6522 38.928 25.9348 38.9065 26.1522C38.9065 26.4783 38.8849 26.6087 38.8419 26.6956C38.7773 26.9565 38.6481 27.1304 38.5189 27.2826C38.4543 27.3913 38.2606 27.6304 37.9592 27.8261C37.7223 28 37.4209 28.1087 36.8612 28.2826C36.4521 28.4348 36.3014 28.4565 36.3229 28.5C36.3229 28.5652 36.732 28.5652 37.5501 28.5652C38.0883 28.5652 38.5189 28.5652 38.8634 28.5869H43.7721C44.5687 28.5869 45.2361 29.2609 45.2361 30.0652L45.2791 30.1522Z" fill="black"/>
<path d="M56.6466 17.5C56.6466 18.3043 56.0008 18.9783 55.1826 18.9783H50.317C50.317 19.3261 50.317 19.6087 50.3385 19.7826C50.3601 20.1522 50.3601 20.2609 50.3385 20.4565C50.274 20.7391 50.1663 20.9348 50.1017 21.0435C50.0587 21.1087 49.951 21.2391 49.6927 21.4565C49.3267 21.7609 48.9822 21.9348 48.7669 22.0217C48.1856 22.2609 47.7766 22.2826 47.7766 22.3478C47.7766 22.413 48.2071 22.413 48.81 22.413C49.4343 22.413 49.951 22.413 50.3385 22.3913H52.1685C52.9651 22.3913 53.6325 23.0652 53.6325 23.8696C53.6325 24.6739 52.9867 25.3478 52.1685 25.3478H50.3385V30.087C50.3385 30.8913 49.6927 31.5435 48.8961 31.5435C48.0995 31.5435 47.4536 30.8913 47.4536 30.087V17.4783C47.4536 16.6739 48.0995 16 48.8961 16C49.6927 16 48.9391 16 48.9607 16C48.9822 16 49.0037 16 49.0253 16H55.2042C56.0008 16 56.6682 16.6739 56.6682 17.4783L56.6466 17.5Z" fill="black"/>
<path d="M63.8805 16.0869C60.0914 16.0869 57.0127 19.5434 57.0127 23.8043C57.0127 28.0652 60.0914 31.5217 63.8805 31.5217C67.6697 31.5217 70.7484 28.0652 70.7484 23.8043C70.7484 19.5434 67.6697 16.0869 63.8805 16.0869ZM63.8805 28.8913C61.4047 28.8043 59.5316 26.1304 59.4025 23.8043C59.2948 22.2173 59.9837 20.5869 60.8449 19.8913C61.6415 19.2608 62.1582 19.1087 62.1582 19.1087C62.5673 19 62.8256 19 63.1055 18.7826C63.3854 18.5652 63.4284 18.3043 63.6222 17.913C64.0528 17.0652 64.7633 16.4782 64.8924 16.5652C65.0216 16.6521 64.4834 17.326 64.6771 18.2391C64.6987 18.413 64.7848 18.7608 65.0647 19C65.2154 19.1521 65.323 19.1304 65.7967 19.3043C66.1411 19.4347 66.421 19.5434 66.6794 19.7173C67.0454 19.9565 67.2607 20.2173 67.4329 20.4347C67.5405 20.5652 67.8635 21 68.1003 21.6956C68.2079 22 68.4017 22.7173 68.3371 23.826C68.251 24.9782 68.1649 26.2608 67.1961 27.3913C67.0669 27.5434 65.7536 29 63.8805 28.9347V28.8913Z" fill="black"/>
<path d="M87.2615 31.3261C87.0462 31.4348 86.8094 31.4783 86.5941 31.4783C86.142 31.4783 85.7114 31.2609 85.5177 30.8479L84.1828 28.1305C83.0633 29.9783 81.384 31.3044 79.5325 31.4566C75.8295 31.7827 72.8369 27.4131 72.6646 23.7392C72.557 21.4566 73.4828 18.6957 75.528 17.2827C76.9275 16.3044 78.6713 16.087 78.9082 16.0653C79.2526 16.0218 80.0492 15.9566 80.9965 16.1305C81.2764 16.174 82.2021 16.3479 82.9772 16.8479C83.3862 17.1087 83.6015 17.3479 83.7307 17.6087C83.7953 17.7609 83.8599 17.8914 83.8814 17.9783C83.903 18.1305 83.946 18.4348 83.8168 18.7392C83.7307 18.9783 83.6015 19.1087 83.58 19.1522C83.3647 19.3914 83.1279 19.4783 83.0202 19.5001C82.5251 19.6522 82.0945 19.4566 81.9653 19.3914C81.8146 19.3044 81.6639 19.2392 81.4917 19.1522C81.2333 19.0435 81.0396 18.9566 80.8673 18.9131C80.5228 18.7827 80.3721 18.7609 80.3076 18.7392C80.1138 18.6957 79.9846 18.6957 79.877 18.674C79.6617 18.6522 79.511 18.674 79.3172 18.674C79.1665 18.674 78.9512 18.674 78.7359 18.6957C78.2623 18.7609 77.8963 18.8914 77.7671 18.9566C77.7671 18.9566 77.0566 19.2392 76.4538 19.8261C75.7003 20.5435 74.9252 22.0653 75.0113 23.7392C75.162 26.0653 77.0136 28.7392 79.4894 28.8261C80.286 28.8479 80.8673 28.6305 81.018 28.5435C82.0084 28.0435 82.7834 26.9348 82.7188 25.7609C82.6973 25.3044 82.5681 24.9566 82.4605 24.7609C82.1806 24.174 82.482 23.4131 83.1494 23.087C83.3647 22.9783 83.6015 22.9348 83.8168 22.9348C84.269 22.9348 84.6995 23.1522 84.8933 23.5653L87.9074 29.6522C88.2519 30.2392 87.9505 31.0001 87.2615 31.3261Z" fill="black"/>
<rect x="93" y="11" width="57" height="22"/>
</g>
<defs>
<clipPath id="clip0_70_48">
<rect width="97" height="34"/>
</clipPath>
</defs>
</svg>
